<svg id="reshot-icon-add-to-basket-SRM3CZYB45" xmlns="http://www.w3.org/2000/svg" width="57.522" height="57.522" viewBox="0 0 57.522 57.522">
  <g id="Layer_x0020_1" transform="translate(7.19 7.19)">
    <path id="Path_3" data-name="Path 3" d="M3.406,3.093H41.442a2.928,2.928,0,0,1,1.687.516,1.921,1.921,0,0,1,.865,1.564V7.221a1.922,1.922,0,0,1-.865,1.564,2.929,2.929,0,0,1-1.687.516H3.406a2.929,2.929,0,0,1-1.688-.516A1.922,1.922,0,0,1,.853,7.221V5.173a1.922,1.922,0,0,1,.865-1.564A2.929,2.929,0,0,1,3.406,3.093Zm38.036,1.8H3.406a1.128,1.128,0,0,0-.648.178c-.066.047-.107.085-.107.1V7.221c0,.019.041.057.107.1a1.128,1.128,0,0,0,.648.178H41.442a1.128,1.128,0,0,0,.648-.178c.066-.047.107-.085.107-.1V5.173c0-.019-.041-.057-.107-.1A1.128,1.128,0,0,0,41.442,4.891Z" transform="translate(-0.853 15.781)" fill="#fff"/>
    <path id="Path_4" data-name="Path 4" d="M39.321,3.842l-1.1,15.435a3.382,3.382,0,0,1-.963,2.151,2.991,2.991,0,0,1-2.138.89H5.351a2.991,2.991,0,0,1-2.138-.89,3.382,3.382,0,0,1-.962-2.151L1.148,3.842l1.791-.126,1.1,15.435a1.579,1.579,0,0,0,.443,1.007,1.214,1.214,0,0,0,.867.363H35.118a1.214,1.214,0,0,0,.867-.363,1.579,1.579,0,0,0,.443-1.006l1.1-15.435,1.791.126Z" transform="translate(1.336 20.404)" fill="#fff"/>
    <path id="Path_5" data-name="Path 5" d="M3.639,4.934a.9.9,0,1,0-1.8,0V15.518a.9.9,0,0,0,1.8,0Z" transform="translate(6.483 22.777)" fill="#fff"/>
    <path id="Path_6" data-name="Path 6" d="M4.372,4.934a.9.9,0,1,0-1.8,0V15.518a.9.9,0,0,0,1.8,0Z" transform="translate(11.924 22.777)" fill="#fff"/>
    <path id="Path_7" data-name="Path 7" d="M5.1,4.934a.9.9,0,1,0-1.8,0V15.518a.9.9,0,1,0,1.8,0Z" transform="translate(17.365 22.777)" fill="#fff"/>
    <path id="Path_8" data-name="Path 8" d="M5.837,4.934a.9.9,0,1,0-1.8,0V15.518a.9.9,0,0,0,1.8,0Z" transform="translate(22.807 22.777)" fill="#fff"/>
    <path id="Path_9" data-name="Path 9" d="M6.57,4.934a.9.9,0,1,0-1.8,0V15.518a.9.9,0,0,0,1.8,0Z" transform="translate(28.248 22.777)" fill="#fff"/>
    <path id="Path_10" data-name="Path 10" d="M5.1.853V16.275h-1.8V.853Z" transform="translate(17.365 -0.853)" fill="#fff"/>
    <path id="Path_11" data-name="Path 11" d="M3.925,2.27,7.863,5.421l4.025-3.158L13,3.674l-4.582,3.6-.557.437L7.3,7.262l-4.494-3.6Z" transform="translate(13.666 9.614)" fill="#fff"/>
  </g>
  <rect id="Rectangle_15" data-name="Rectangle 15" width="57.522" height="57.522" fill="none"/>
</svg>
