<svg xmlns="http://www.w3.org/2000/svg" width="24" height="20.977" viewBox="0 0 24 20.977">
  <path id="customer-care" d="M15.967,10.673l-.1.32-.016.027-.014.018a1.412,1.412,0,0,1-.391.045,2.508,2.508,0,0,0,.119-1.1h0a.3.3,0,0,1,.119-.264,1.332,1.332,0,0,0,.465-.662l.064-.51a.963.963,0,0,0-.037-.205.149.149,0,0,0-.021-.057H16.1a.3.3,0,0,1-.281-.3,5.03,5.03,0,0,0-.268-1.979,2.81,2.81,0,0,0-1.3-1.029c-.1-.041-.2-.086-.293-.137-1.783,1.863-3.26-.533-5.375,3.076H8.51c-.027.063-.057.125-.084.2l-.016.031A.3.3,0,0,1,8,8.257q-.072-.041-.082-.035c-.012,0-.025.031-.043.072a.918.918,0,0,0-.064.3A1.78,1.78,0,0,0,8.2,9.837a.3.3,0,0,1,.092.207,2.841,2.841,0,0,0,1.3,2.381l.293.254a3.276,3.276,0,0,0,2.148.941,2.932,2.932,0,0,0,2.053-.926h.877l-.158.15-.289.273a3.554,3.554,0,0,1-2.469,1.1A3.892,3.892,0,0,1,9.5,13.128l-.285-.25a3.4,3.4,0,0,1-1.449-2.189l-.941.076a.7.7,0,0,1-.791-.572L5.664,7.305a.693.693,0,0,1,.627-.764L6.6,6.516a.348.348,0,0,1-.031-.127C6.383,3.391,7.676,1.507,9.424.6A5.814,5.814,0,0,1,15.109.9a5.137,5.137,0,0,1,2.172,5.531.479.479,0,0,1-.035.105l.467.053a.744.744,0,0,1,.662.834l-.361,2.746a.768.768,0,0,1-.857.643h0a5.516,5.516,0,0,1-.2.611,1.367,1.367,0,0,1-.293.455c-.391.4-1.652.4-2.1.4H13.4a1.367,1.367,0,0,1-1.025.391c-.648,0-1.172-.344-1.172-.768s.523-.768,1.172-.768a1.379,1.379,0,0,1,.988.389h1.2a4.2,4.2,0,0,0,1.574-.182.586.586,0,0,0,.125-.2l.133-.414-.426-.049ZM7.422,5.305a5.064,5.064,0,0,1,7.7-3.062,3.652,3.652,0,0,1,.834.656,4.125,4.125,0,0,0-1.332-1.367A4.852,4.852,0,0,0,12.27.78a4.764,4.764,0,0,0-2.426.494A4.617,4.617,0,0,0,7.422,5.305Zm1.324,8.951,1.8,4.725.906-2.576-.443-.484c-.334-.488-.219-1.041.391-1.141a4.465,4.465,0,0,1,.67-.014,3.533,3.533,0,0,1,.736.029c.574.125.635.682.348,1.125l-.436.484.9,2.578,1.631-4.727c1.172,1.059,5.314,1.271,6.609,1.992,1.793,1,1.744,2.93,2.137,4.727H0c.391-1.779.35-3.738,2.137-4.727C3.729,15.36,7.443,15.428,8.746,14.257Z" transform="translate(0 0.002)"/>
</svg>
