<svg xmlns="http://www.w3.org/2000/svg" width="22" height="22.766" viewBox="0 0 22 22.766">
  <path id="door-key" d="M12.947,1.8c.026.024.05.048.074.074a6.352,6.352,0,0,1-.039,8.927l-.011.013L18.5,16.354h0l2.153,2.153h0l1.319,1.319-2.153,2.151L18.5,20.659l-2.086,2.086-2.153-2.153,2.086-2.086-1.137-1.137-2.408,2.408L10.66,17.619l2.408-2.408-2.256-2.245-.013.011A6.34,6.34,0,0,1,1.833,4.011L4.009,1.835A6.35,6.35,0,0,1,12.947,1.8Zm-1.61,4.518A2.838,2.838,0,0,0,10.51,4.3h0a2.862,2.862,0,0,0-4.031,0L4.3,6.479A2.851,2.851,0,1,0,8.332,10.51l2.176-2.177a2.843,2.843,0,0,0,.83-2.015Z" transform="translate(0.024 0.022)"/>
</svg>
