<svg xmlns="http://www.w3.org/2000/svg" width="41.456" height="41.808" viewBox="0 0 41.456 41.808">
  <g id="reshot-icon-home-G4U8ZVKCDQ" transform="translate(1.097 1)">
    <path id="path3" d="M46.622,26.893a1.587,1.587,0,0,1,.169,2.07L45.748,30.39a1.639,1.639,0,0,1-2.466.2l-15.815-15.6-15.815,15.6a1.639,1.639,0,0,1-2.466-.2L8.142,28.963a1.587,1.587,0,0,1,.169-2.07L27.467,8,46.622,26.893Z" transform="translate(-7.836 -8)" fill="none" stroke="#fff" stroke-linecap="round" stroke-linejoin="round" stroke-miterlimit="2" stroke-width="2" fill-rule="evenodd"/>
    <path id="path5" d="M13.977,31.163l14.71-14.441L43.4,31.163V47.19a1.786,1.786,0,0,1-.539,1.276,1.853,1.853,0,0,1-1.3.529H15.816a1.853,1.853,0,0,1-1.3-.529,1.786,1.786,0,0,1-.539-1.276V31.163Z" transform="translate(-9.056 -9.188)" fill="none" stroke="#fff" stroke-linecap="round" stroke-linejoin="round" stroke-miterlimit="2" stroke-width="2" fill-rule="evenodd"/>
    <path id="path7" d="M19.169,18.481,12.851,24.8V15.322h6.318Z" transform="translate(-8.832 -9.455)" fill="none" stroke="#fff" stroke-linecap="round" stroke-linejoin="round" stroke-miterlimit="2" stroke-width="2" fill-rule="evenodd"/>
    <path id="path9" d="M35.013,44.2a1.2,1.2,0,0,0-1.2-1.2H28.2A1.2,1.2,0,0,0,27,44.2V54.218h8.013Z" transform="translate(-11.375 -14.41)" fill="none" stroke="#fff" stroke-linecap="round" stroke-linejoin="round" stroke-miterlimit="2" stroke-width="2" fill-rule="evenodd"/>
  </g>
</svg>
