<svg id="reshot-icon-chat-XA4REQ93W8" xmlns="http://www.w3.org/2000/svg" width="43.94" height="43.94" viewBox="0 0 43.94 43.94">
  <g id="Group_27" data-name="Group 27" transform="translate(8.788)">
    <path id="Path_19" data-name="Path 19" d="M39.223,33.223a1.475,1.475,0,0,1-.545-.1A24.242,24.242,0,0,1,30.987,28a1.465,1.465,0,0,1,2.029-2.114,23.973,23.973,0,0,0,3.679,2.921,50.977,50.977,0,0,1-1.3-5.58,1.466,1.466,0,0,1,.458-1.334,9.491,9.491,0,0,0,3.37-6.979c0-6.058-6.571-10.985-14.647-10.985S9.929,8.857,9.929,14.914c0,.179.006.354.018.53A1.464,1.464,0,0,1,8.58,17a1.48,1.48,0,0,1-1.557-1.367C7.007,15.4,7,15.156,7,14.914,7,7.242,14.884,1,24.576,1S42.152,7.242,42.152,14.914a12.2,12.2,0,0,1-3.733,8.577,47.526,47.526,0,0,0,2.165,7.723,1.467,1.467,0,0,1-1.361,2.008Z" transform="translate(-7 -1)" fill="#f5f6f8"/>
  </g>
  <g id="Group_28" data-name="Group 28" transform="translate(0 11.718)">
    <path id="Path_20" data-name="Path 20" d="M3.929,41.223a1.465,1.465,0,0,1-1.362-2.007,47.352,47.352,0,0,0,2.165-7.723A12.211,12.211,0,0,1,1,22.914C1,15.242,8.884,9,18.576,9s17.576,6.242,17.576,13.914S28.268,36.829,18.576,36.829a21.552,21.552,0,0,1-6.305-.932,24.264,24.264,0,0,1-7.8,5.22A1.435,1.435,0,0,1,3.929,41.223ZM18.576,11.929c-8.076,0-14.647,4.927-14.647,10.985A9.494,9.494,0,0,0,7.3,29.894a1.463,1.463,0,0,1,.458,1.334,50.753,50.753,0,0,1-1.3,5.582A24.772,24.772,0,0,0,10.827,33.2a1.464,1.464,0,0,1,1.538-.357A18.569,18.569,0,0,0,18.576,33.9c8.076,0,14.647-4.927,14.647-10.985S26.652,11.929,18.576,11.929Z" transform="translate(-1 -9)" fill="#f5f6f8"/>
  </g>
  <g id="Group_29" data-name="Group 29" transform="translate(5.859 17.576)">
    <path id="Path_21" data-name="Path 21" d="M6.465,22.52A1.464,1.464,0,0,1,5,21.056C5,17.166,9.709,13,16.717,13a1.465,1.465,0,1,1,0,2.929c-5.365,0-8.788,3.036-8.788,5.126A1.464,1.464,0,0,1,6.465,22.52Z" transform="translate(-5 -13)" fill="#f5f6f8"/>
  </g>
</svg>
