<?xml version="1.0" standalone="no"?>
<!DOCTYPE svg PUBLIC "-//W3C//DTD SVG 20010904//EN"
 "http://www.w3.org/TR/2001/REC-SVG-20010904/DTD/svg10.dtd">
<svg version="1.0" xmlns="http://www.w3.org/2000/svg"
 width="512.000000pt" height="512.000000pt" viewBox="0 0 512.000000 512.000000"
 preserveAspectRatio="xMidYMid meet">

<g transform="translate(0.000000,512.000000) scale(0.100000,-0.100000)"
fill="#000000" stroke="none">
<path d="M2479 4616 c-148 -57 -250 -176 -267 -314 l-7 -57 -118 -3 -117 -3 0
-264 0 -265 620 0 620 0 0 265 0 264 -112 3 -113 3 -7 57 c-15 119 -107 241
-223 295 -49 22 -77 28 -150 30 -59 2 -102 -2 -126 -11z m185 -158 c76 -23
156 -126 156 -202 0 -14 -24 -16 -226 -16 l-227 0 7 41 c9 57 29 92 75 130 66
56 134 71 215 47z"/>
<path d="M1291 4110 c-108 -39 -192 -115 -244 -220 l-32 -65 0 -1545 0 -1545
32 -67 c61 -130 186 -220 331 -239 95 -12 2359 -11 2447 1 40 6 97 23 131 40
81 40 173 137 206 217 l23 58 0 1535 0 1535 -32 67 c-54 115 -150 199 -262
232 -44 13 -106 16 -313 16 l-258 0 0 -105 0 -105 238 0 c141 0 253 -5 277
-11 50 -14 120 -84 134 -136 15 -53 15 -2933 0 -2986 -13 -49 -63 -105 -114
-128 -38 -18 -101 -19 -1260 -19 l-1220 0 -51 30 c-41 23 -58 41 -78 82 l-26
52 0 1475 c0 1415 1 1478 19 1516 10 22 31 52 47 67 58 54 82 58 349 58 l245
0 0 105 0 105 -267 0 c-240 -1 -274 -3 -322 -20z"/>
<path d="M1470 3035 l0 -235 233 2 232 3 3 233 2 232 -235 0 -235 0 0 -235z"/>
<path d="M2050 3040 l0 -100 830 0 830 0 0 100 0 100 -830 0 -830 0 0 -100z"/>
<path d="M1470 2175 l0 -235 233 2 232 3 3 233 2 232 -235 0 -235 0 0 -235z"/>
<path d="M2050 2180 l0 -100 830 0 830 0 0 100 0 100 -830 0 -830 0 0 -100z"/>
<path d="M1470 1325 l0 -235 233 2 232 3 3 233 2 232 -235 0 -235 0 0 -235z"/>
<path d="M2050 1330 l0 -100 830 0 830 0 0 100 0 100 -830 0 -830 0 0 -100z"/>
</g>
</svg>
