<?xml version="1.0" standalone="no"?>
<!DOCTYPE svg PUBLIC "-//W3C//DTD SVG 20010904//EN"
 "http://www.w3.org/TR/2001/REC-SVG-20010904/DTD/svg10.dtd">
<svg version="1.0" xmlns="http://www.w3.org/2000/svg"
 width="64.000000pt" height="64.000000pt" viewBox="0 0 64.000000 64.000000"
 preserveAspectRatio="xMidYMid meet">

<g transform="translate(0.000000,64.000000) scale(0.100000,-0.100000)"
fill="#000000" stroke="none">
<path d="M192 588 c-7 -7 -12 -25 -12 -40 0 -21 -5 -28 -20 -28 -11 0 -29 -9
-40 -20 -19 -19 -20 -33 -20 -220 0 -260 -19 -240 220 -240 239 0 220 -20 220
240 0 187 -1 201 -20 220 -11 11 -29 20 -40 20 -15 0 -20 7 -20 28 0 15 -5 33
-12 40 -17 17 -239 17 -256 0z m228 -58 l0 -30 -100 0 -100 0 0 30 0 30 100 0
100 0 0 -30z m-225 -60 c9 -14 231 -13 254 2 10 6 26 8 35 5 15 -6 16 -28 14
-199 l-3 -193 -175 0 -175 0 -3 185 c-1 101 0 190 2 197 6 15 42 17 51 3z"/>
<path d="M185 410 c-14 -22 12 -31 81 -28 53 2 69 6 69 18 0 12 -16 16 -72 18
-45 2 -74 -1 -78 -8z"/>
<path d="M185 329 c-15 -24 16 -30 141 -27 107 3 129 6 129 18 0 12 -23 15
-132 18 -89 2 -134 -1 -138 -9z"/>
<path d="M185 249 c-15 -24 16 -30 141 -27 107 3 129 6 129 18 0 12 -23 15
-132 18 -89 2 -134 -1 -138 -9z"/>
<path d="M185 169 c-15 -24 16 -30 141 -27 107 3 129 6 129 18 0 12 -23 15
-132 18 -89 2 -134 -1 -138 -9z"/>
</g>
</svg>
