<svg xmlns="http://www.w3.org/2000/svg" width="24.664" height="25" viewBox="0 0 24.664 25">
  <path id="user_1_" data-name="user (1)" d="M23.664,12A11.931,11.931,0,0,0,11.832,0,12.03,12.03,0,0,0,3.841,20.84l-.011.01.384.328c.025.021.052.039.077.06.2.171.415.334.63.492.07.051.139.1.21.152q.345.241.706.457L6,22.431c.264.152.533.3.809.428l.061.028a11.608,11.608,0,0,0,2.862.919l.079.014c.312.055.626.1.945.127l.117.009c.318.027.639.044.964.044s.64-.017.956-.043l.12-.009q.474-.044.937-.125l.08-.015a11.606,11.606,0,0,0,2.821-.9l.1-.045q.4-.19.779-.408l.189-.11c.231-.138.459-.283.68-.436.08-.055.157-.113.236-.171.189-.138.374-.28.555-.429.04-.033.083-.061.122-.095l.394-.333-.012-.01A12.045,12.045,0,0,0,23.664,12ZM.861,12A11.063,11.063,0,0,1,11.832.873a11.154,11.154,0,0,1,7.276,19.446,3.216,3.216,0,0,0-.384-.234l-3.643-1.847a.969.969,0,0,1-.53-.87v-1.29c.084-.106.173-.225.265-.357a8.94,8.94,0,0,0,1.126-2.235,1.585,1.585,0,0,0,.9-1.435V10.5a1.6,1.6,0,0,0-.382-1.034V7.433a3.555,3.555,0,0,0-.81-2.559,4.805,4.805,0,0,0-3.815-1.383A4.806,4.806,0,0,0,8.017,4.873a3.555,3.555,0,0,0-.81,2.559V9.469A1.6,1.6,0,0,0,6.825,10.5v1.547A1.6,1.6,0,0,0,7.4,13.28a8.245,8.245,0,0,0,1.331,2.788v1.263a.976.976,0,0,1-.5.854l-3.4,1.882a3.1,3.1,0,0,0-.324.208A11.17,11.17,0,0,1,.861,12Zm17.408,9q-.226.166-.459.321c-.071.047-.142.094-.215.14-.2.127-.41.249-.62.362l-.14.073a10.881,10.881,0,0,1-1.5.644l-.055.019q-.4.136-.819.241h0c-.279.07-.561.128-.845.175l-.023,0c-.267.044-.537.076-.807.1l-.144.011c-.267.021-.536.034-.805.034s-.545-.014-.815-.034l-.14-.011c-.273-.024-.544-.057-.813-.1l-.036-.007a10.806,10.806,0,0,1-1.674-.424L8.3,22.533q-.406-.14-.8-.311l-.006,0c-.249-.109-.493-.229-.734-.356l-.094-.049c-.22-.119-.435-.248-.647-.382l-.187-.122c-.2-.13-.388-.264-.576-.407L5.2,20.857l.041-.024,3.4-1.882a1.849,1.849,0,0,0,.949-1.621V15.759l-.1-.121A7.323,7.323,0,0,1,8.2,12.926l-.039-.173-.147-.1a.726.726,0,0,1-.331-.607V10.5a.717.717,0,0,1,.24-.534l.142-.13V7.408l0-.057a2.656,2.656,0,0,1,.6-1.9,4.021,4.021,0,0,1,3.168-1.084A4.031,4.031,0,0,1,14.993,5.44,2.7,2.7,0,0,1,15.6,7.351l0,2.488.142.13a.718.718,0,0,1,.24.534V12.05a.728.728,0,0,1-.508.687l-.214.067-.069.216a8.119,8.119,0,0,1-1.074,2.2c-.113.161-.222.3-.317.414l-.107.123v1.614a1.838,1.838,0,0,0,1.006,1.65l3.643,1.847.069.036C18.362,20.936,18.315,20.969,18.268,21Z" transform="translate(0.5 0.5)" stroke="#000" stroke-width="1"/>
</svg>
